<svg width="32" height="29" viewBox="0 0 32 29" fill="none" xmlns="http://www.w3.org/2000/svg">
<path d="M16 10.9614C19.003 10.9614 21.4374 8.50763 21.4374 5.48072C21.4374 2.4538 19.003 0 16 0C12.9969 0 10.5625 2.4538 10.5625 5.48072C10.5625 8.50763 12.9969 10.9614 16 10.9614Z" fill="#472CFC"/>
<path d="M27 10.9609C28.8984 10.9609 30.4374 9.40964 30.4374 7.49607C30.4374 5.5825 28.8984 4.03125 27 4.03125C25.1015 4.03125 23.5625 5.5825 23.5625 7.49607C23.5625 9.40964 25.1015 10.9609 27 10.9609Z" fill="#472CFC"/>
<path d="M4.99997 10.9609C6.89843 10.9609 8.43744 9.40964 8.43744 7.49607C8.43744 5.5825 6.89843 4.03125 4.99997 4.03125C3.10151 4.03125 1.5625 5.5825 1.5625 7.49607C1.5625 9.40964 3.10151 10.9609 4.99997 10.9609Z" fill="#472CFC"/>
<path d="M8.3868 14.0727C7.03369 12.9552 5.80826 13.1032 4.24371 13.1032C1.90373 13.1032 0 15.0107 0 17.3548V24.2347C0 25.2527 0.824368 26.0805 1.83811 26.0805C6.21469 26.0805 5.68745 26.1603 5.68745 25.8902C5.68745 21.0152 5.11458 17.44 8.3868 14.0727Z" fill="#472CFC"/>
<path d="M17.4882 13.129C14.7555 12.8993 12.3802 13.1317 10.3314 14.8362C6.90288 17.6043 7.56268 21.3314 7.56268 25.8909C7.56268 27.0972 8.53642 28.097 9.75141 28.097C22.9439 28.097 23.469 28.526 24.2513 26.7798C24.5078 26.1893 24.4375 26.3769 24.4375 20.7277C24.4375 16.2407 20.583 13.129 17.4882 13.129Z" fill="#472CFC"/>
<path d="M27.7564 13.104C26.1833 13.104 24.9646 12.9576 23.6133 14.0735C26.8611 17.4159 26.3126 20.7471 26.3126 25.8911C26.3126 26.1628 25.8749 26.0813 30.0963 26.0813C31.1463 26.0813 32.0001 25.2239 32.0001 24.17V17.3556C32.0001 15.0115 30.0963 13.104 27.7564 13.104Z" fill="#472CFC"/>
</svg>
