<svg width="28" height="29" viewBox="0 0 28 29" fill="none" xmlns="http://www.w3.org/2000/svg">
<path d="M21.301 4.80536C21.301 4.14509 21.0447 3.52352 20.58 3.05652L18.2601 0.72469C17.8019 0.264118 17.1515 0 16.5043 0H16.3633V4.94707H21.3011L21.301 4.80536Z" fill="#472CFC"/>
<path d="M14.9808 17.0144C15.1378 16.5354 15.4118 16.0893 15.7691 15.7278L21.3232 10.1677V6.59609H15.5592C15.1058 6.59609 14.7655 6.22731 14.7655 5.77158V0H2.46092C1.10391 0 0 1.10957 0 2.47353V25.6698C0 27.0337 1.10391 28.1433 2.46092 28.1433H18.8404C20.1974 28.1433 21.3232 27.0337 21.3232 25.6698V19.5161L20.4217 20.4002C20.0565 20.7642 19.6287 21.0291 19.1464 21.1909L16.5381 22.0662L16.1408 22.0879C15.4839 22.0879 14.8623 21.7667 14.4762 21.2288C14.0932 20.6934 13.9891 19.9993 14.1974 19.3721L14.9808 17.0144ZM4.10153 14.8412H12.278C12.7314 14.8412 13.0983 15.21 13.0983 15.6657C13.0983 16.1214 12.7314 16.4902 12.278 16.4902H4.10153C3.64812 16.4902 3.28122 16.1214 3.28122 15.6657C3.28122 15.21 3.64812 14.8412 4.10153 14.8412ZM3.28122 12.3677C3.28122 11.9119 3.64812 11.5432 4.10153 11.5432H12.278C12.7314 11.5432 13.0983 11.9119 13.0983 12.3677C13.0983 12.8234 12.7314 13.1922 12.278 13.1922H4.10153C3.64812 13.1922 3.28122 12.8234 3.28122 12.3677ZM3.28122 18.9638C3.28122 18.508 3.64812 18.1392 4.10153 18.1392H12.278C12.7314 18.1392 13.0983 18.508 13.0983 18.9638C13.0983 19.4195 12.7314 19.7883 12.278 19.7883H4.10153C3.64812 19.7883 3.28122 19.4195 3.28122 18.9638ZM15.5592 23.0863C16.0126 23.0863 16.3795 23.4551 16.3795 23.9108C16.3795 24.3666 16.0126 24.7353 15.5592 24.7353H10.6373C10.1839 24.7353 9.81704 24.3666 9.81704 23.9108C9.81704 23.4551 10.1839 23.0863 10.6373 23.0863H15.5592ZM4.10153 9.89414C3.64812 9.89414 3.28122 9.52536 3.28122 9.06962C3.28122 8.61389 3.64812 8.24511 4.10153 8.24511H15.5592C16.0126 8.24511 16.3795 8.61389 16.3795 9.06962C16.3795 9.52536 16.0126 9.89414 15.5592 9.89414H4.10153Z" fill="#472CFC"/>
<path d="M16.4669 17.7441L15.7532 19.8962C15.6463 20.2186 15.9515 20.5252 16.2722 20.4175L18.412 19.6992L16.4669 17.7441Z" fill="#472CFC"/>
<path d="M22.838 10.9561L17.4355 16.3862L19.7655 18.7281C20.9865 17.5006 23.3624 15.1122 25.1677 13.2977L22.838 10.9561Z" fill="#472CFC"/>
<path d="M27.518 8.58999C27.2297 8.2985 26.8051 8.13184 26.3548 8.13184C25.9046 8.13184 25.4801 8.2985 25.1901 8.59081L23.998 9.78894L26.3276 12.1304C26.9802 11.4745 27.4312 11.0211 27.5197 10.9322C28.1605 10.2872 28.1604 9.23652 27.518 8.58999Z" fill="#472CFC"/>
</svg>
