<svg width="32" height="28" viewBox="0 0 32 28" fill="none" xmlns="http://www.w3.org/2000/svg">
<path d="M15.9999 10.9058C19.003 10.9058 21.4374 8.46446 21.4374 5.4529C21.4374 2.44135 19.003 0 15.9999 0C12.9969 0 10.5625 2.44135 10.5625 5.4529C10.5625 8.46446 12.9969 10.9058 15.9999 10.9058Z" fill="#472CFC"/>
<path d="M27 10.9052C28.8984 10.9052 30.4374 9.36184 30.4374 7.45798C30.4374 5.55412 28.8984 4.01074 27 4.01074C25.1015 4.01074 23.5625 5.55412 23.5625 7.45798C23.5625 9.36184 25.1015 10.9052 27 10.9052Z" fill="#472CFC"/>
<path d="M4.99996 10.9052C6.89842 10.9052 8.43742 9.36184 8.43742 7.45798C8.43742 5.55412 6.89842 4.01074 4.99996 4.01074C3.1015 4.01074 1.5625 5.55412 1.5625 7.45798C1.5625 9.36184 3.1015 10.9052 4.99996 10.9052Z" fill="#472CFC"/>
<path d="M8.38678 14.0003C7.03367 12.8886 5.80825 13.0357 4.2437 13.0357C1.90373 13.0357 0 14.9336 0 17.2658V24.1108C0 25.1236 0.824366 25.9472 1.8381 25.9472C6.21468 25.9472 5.68744 26.0266 5.68744 25.7579C5.68744 20.9076 5.11457 17.3506 8.38678 14.0003Z" fill="#472CFC"/>
<path d="M17.4882 13.0622C14.7555 12.8337 12.3802 13.0649 10.3314 14.7608C6.90288 17.5148 7.56268 21.223 7.56268 25.7593C7.56268 26.9596 8.53642 27.9543 9.75141 27.9543C22.9439 27.9543 23.4689 28.3811 24.2512 26.6437C24.5078 26.0562 24.4375 26.2429 24.4375 20.6223C24.4375 16.1581 20.583 13.0622 17.4882 13.0622Z" fill="#472CFC"/>
<path d="M27.7564 13.0375C26.1833 13.0375 24.9646 12.8919 23.6133 14.0021C26.8611 17.3275 26.3126 20.6418 26.3126 25.7597C26.3126 26.0301 25.8749 25.949 30.0963 25.949C31.1463 25.949 32.0001 25.096 32.0001 24.0474V17.2676C32.0001 14.9354 30.0963 13.0375 27.7564 13.0375Z" fill="#472CFC"/>
</svg>
