<svg width="28" height="28" viewBox="0 0 28 28" fill="none" xmlns="http://www.w3.org/2000/svg">
<path d="M21.301 4.78089C21.301 4.12398 21.0446 3.50558 20.58 3.04095L18.2601 0.721C17.8019 0.262773 17.1515 0 16.5043 0H16.3633V4.92188H21.301L21.301 4.78089Z" fill="#472CFC"/>
<path d="M14.9807 16.9278C15.1377 16.4511 15.4117 16.0074 15.7689 15.6477L21.323 10.1159V6.5625H15.559C15.1056 6.5625 14.7654 6.1956 14.7654 5.74219V0H2.4609C1.1039 0 0 1.10392 0 2.46094V25.5391C0 26.8961 1.1039 28 2.4609 28H18.8402C20.1972 28 21.323 26.8961 21.323 25.5391V19.4167L20.4216 20.2963C20.0563 20.6584 19.6285 20.922 19.1463 21.083L16.538 21.9538L16.1406 21.9755C15.4837 21.9755 14.8621 21.6558 14.476 21.1207C14.0931 20.588 13.989 19.8974 14.1972 19.2734L14.9807 16.9278ZM4.10149 14.7656H12.2779C12.7313 14.7656 13.0981 15.1325 13.0981 15.5859C13.0981 16.0394 12.7313 16.4062 12.2779 16.4062H4.10149C3.64809 16.4062 3.2812 16.0394 3.2812 15.5859C3.2812 15.1325 3.64809 14.7656 4.10149 14.7656ZM3.2812 12.3047C3.2812 11.8513 3.64809 11.4844 4.10149 11.4844H12.2779C12.7313 11.4844 13.0981 11.8513 13.0981 12.3047C13.0981 12.7581 12.7313 13.125 12.2779 13.125H4.10149C3.64809 13.125 3.2812 12.7581 3.2812 12.3047ZM3.2812 18.8672C3.2812 18.4138 3.64809 18.0469 4.10149 18.0469H12.2779C12.7313 18.0469 13.0981 18.4138 13.0981 18.8672C13.0981 19.3206 12.7313 19.6875 12.2779 19.6875H4.10149C3.64809 19.6875 3.2812 19.3206 3.2812 18.8672ZM15.559 22.9688C16.0125 22.9688 16.3793 23.3356 16.3793 23.7891C16.3793 24.2425 16.0125 24.6094 15.559 24.6094H10.6373C10.1838 24.6094 9.81695 24.2425 9.81695 23.7891C9.81695 23.3356 10.1838 22.9688 10.6373 22.9688H15.559ZM4.10149 9.84375C3.64809 9.84375 3.2812 9.47685 3.2812 9.02344C3.2812 8.57002 3.64809 8.20312 4.10149 8.20312H15.559C16.0125 8.20312 16.3793 8.57002 16.3793 9.02344C16.3793 9.47685 16.0125 9.84375 15.559 9.84375H4.10149Z" fill="#472CFC"/>
<path d="M16.4669 17.6543L15.7532 19.7954C15.6463 20.1161 15.9515 20.4212 16.2722 20.3141L18.412 19.5994L16.4669 17.6543Z" fill="#472CFC"/>
<path d="M22.838 10.8994L17.4355 16.3019L19.7655 18.6319C20.9865 17.4106 23.3624 15.0344 25.1676 13.2291L22.838 10.8994Z" fill="#472CFC"/>
<path d="M27.518 8.54566C27.2296 8.25566 26.8051 8.08984 26.3548 8.08984C25.9046 8.08984 25.4801 8.25566 25.19 8.54648L23.998 9.73851L26.3276 12.0681C26.9802 11.4154 27.4312 10.9644 27.5197 10.876C28.1605 10.2342 28.1604 9.1889 27.518 8.54566Z" fill="#472CFC"/>
</svg>
